<?xml version="1.0" encoding="UTF-8"?><svg id="Layer_2" xmlns="http://www.w3.org/2000/svg" viewBox="0 0 647.93 156.6"><defs><style>.cls-1{fill:#fb0;}.cls-2{fill:#442f1b;}</style></defs><g id="Layer_1-2"><g><path class="cls-2" d="M285.57,124.31c-6.75,0-12.57-1.11-17.45-3.34-4.88-2.23-8.67-5.49-11.36-9.8-2.7-4.31-4.18-9.66-4.47-16.05-.07-2.94-.11-6.1-.11-9.48s.04-6.6,.11-9.7c.29-6.25,1.8-11.56,4.53-15.94,2.73-4.38,6.53-7.68,11.42-9.91s10.66-3.34,17.34-3.34c4.74,0,9.12,.59,13.14,1.78s7.54,2.91,10.56,5.17c3.02,2.26,5.37,5,7.05,8.19,1.68,3.19,2.57,6.8,2.64,10.83,.07,.64-.12,1.18-.59,1.61-.47,.43-1.02,.64-1.67,.64h-14.54c-.93,0-1.65-.2-2.15-.59s-.93-1.13-1.29-2.21c-1.01-3.81-2.64-6.41-4.9-7.81-2.26-1.4-5.05-2.1-8.35-2.1-3.95,0-7.07,1.1-9.37,3.29-2.3,2.19-3.56,5.84-3.77,10.93-.22,5.89-.22,11.92,0,18.1,.22,5.1,1.47,8.74,3.77,10.93,2.3,2.19,5.42,3.29,9.37,3.29,3.3,0,6.1-.72,8.4-2.15,2.3-1.44,3.91-4.02,4.85-7.76,.29-1.08,.7-1.81,1.24-2.21,.54-.4,1.28-.59,2.21-.59h14.54c.64,0,1.2,.21,1.67,.64,.47,.43,.66,.97,.59,1.61-.07,4.03-.95,7.63-2.64,10.83-1.69,3.2-4.04,5.93-7.05,8.19-3.02,2.26-6.54,3.98-10.56,5.17s-8.4,1.78-13.14,1.78Z"/><path class="cls-2" d="M355.58,124.31c-6.03,0-11.11-.97-15.24-2.91s-7.29-4.72-9.48-8.35c-2.19-3.63-3.43-7.95-3.71-12.98-.07-1.43-.11-3.07-.11-4.9s.03-3.43,.11-4.79c.29-5.1,1.58-9.44,3.88-13.04,2.3-3.59,5.51-6.36,9.64-8.29s9.1-2.91,14.92-2.91,10.9,.97,15.03,2.91,7.34,4.7,9.64,8.29c2.3,3.59,3.59,7.94,3.88,13.04,.07,1.36,.11,2.96,.11,4.79s-.04,3.47-.11,4.9c-.29,5.03-1.53,9.35-3.71,12.98-2.19,3.63-5.35,6.41-9.48,8.35-4.13,1.94-9.25,2.91-15.35,2.91Zm0-13.14c3.23,0,5.58-.97,7.05-2.91s2.32-4.85,2.53-8.73c.07-1.08,.11-2.51,.11-4.31s-.04-3.23-.11-4.31c-.22-3.81-1.06-6.69-2.53-8.67-1.47-1.98-3.82-2.97-7.05-2.97s-5.4,.99-6.95,2.97c-1.55,1.98-2.39,4.86-2.53,8.67-.07,1.08-.11,2.52-.11,4.31s.04,3.23,.11,4.31c.14,3.88,.99,6.79,2.53,8.73,1.54,1.94,3.86,2.91,6.95,2.91Z"/><path class="cls-2" d="M397.59,123.23c-.79,0-1.43-.27-1.94-.81-.5-.54-.75-1.17-.75-1.88V49.44c0-.79,.25-1.43,.75-1.94,.5-.5,1.15-.75,1.94-.75h12.71c.79,0,1.43,.25,1.94,.75,.5,.5,.75,1.15,.75,1.94V120.54c0,.72-.25,1.34-.75,1.88-.5,.54-1.15,.81-1.94,.81h-12.71Z"/><path class="cls-2" d="M452.21,124.31c-6.03,0-11.11-.97-15.24-2.91s-7.29-4.72-9.48-8.35c-2.19-3.63-3.43-7.95-3.71-12.98-.07-1.43-.11-3.07-.11-4.9s.03-3.43,.11-4.79c.29-5.1,1.58-9.44,3.88-13.04,2.3-3.59,5.51-6.36,9.64-8.29s9.1-2.91,14.92-2.91,10.9,.97,15.03,2.91c4.13,1.94,7.34,4.7,9.64,8.29,2.3,3.59,3.59,7.94,3.88,13.04,.07,1.36,.11,2.96,.11,4.79s-.04,3.47-.11,4.9c-.29,5.03-1.53,9.35-3.71,12.98-2.19,3.63-5.35,6.41-9.48,8.35-4.13,1.94-9.25,2.91-15.35,2.91Zm0-13.14c3.23,0,5.58-.97,7.05-2.91,1.47-1.94,2.32-4.85,2.53-8.73,.07-1.08,.11-2.51,.11-4.31s-.04-3.23-.11-4.31c-.22-3.81-1.06-6.69-2.53-8.67-1.47-1.98-3.82-2.97-7.05-2.97s-5.4,.99-6.95,2.97c-1.55,1.98-2.39,4.86-2.53,8.67-.07,1.08-.11,2.52-.11,4.31s.04,3.23,.11,4.31c.14,3.88,.99,6.79,2.53,8.73,1.54,1.94,3.86,2.91,6.95,2.91Z"/><path class="cls-2" d="M494.21,123.23c-.79,0-1.43-.27-1.94-.81-.5-.54-.75-1.17-.75-1.88v-50.63c0-.79,.25-1.43,.75-1.94s1.15-.75,1.94-.75h12.39c.79,0,1.45,.25,1.99,.75,.54,.5,.81,1.15,.81,1.94v4.09c1.8-2.23,4.2-4.09,7.22-5.6,3.02-1.51,6.57-2.26,10.66-2.26s7.85,.93,11.04,2.8c3.19,1.87,5.71,4.6,7.54,8.19,1.83,3.59,2.75,8.04,2.75,13.36v30.05c0,.72-.25,1.34-.75,1.88-.5,.54-1.15,.81-1.94,.81h-13.57c-.72,0-1.35-.27-1.89-.81-.54-.54-.81-1.17-.81-1.88v-29.41c0-3.37-.81-5.98-2.42-7.81-1.61-1.83-4-2.75-7.16-2.75-2.94,0-5.29,.92-7.05,2.75-1.76,1.83-2.64,4.43-2.64,7.81v29.41c0,.72-.27,1.34-.81,1.88s-1.17,.81-1.88,.81h-13.47Z"/><path class="cls-2" d="M563.48,123.23c-.79,0-1.43-.27-1.94-.81-.5-.54-.75-1.17-.75-1.88V49.44c0-.79,.25-1.43,.75-1.94,.5-.5,1.15-.75,1.94-.75h12.71c.79,0,1.43,.25,1.94,.75,.5,.5,.75,1.15,.75,1.94V120.54c0,.72-.25,1.34-.75,1.88-.5,.54-1.15,.81-1.94,.81h-12.71Z"/><path class="cls-2" d="M602.04,143.7c-.64,0-1.19-.22-1.61-.65-.43-.43-.65-.97-.65-1.61,0-.15,.02-.34,.05-.59,.04-.25,.12-.52,.27-.81l8.4-20.25-20.68-48.9c-.22-.5-.32-.93-.32-1.29,.14-.64,.43-1.2,.86-1.67,.43-.47,.97-.7,1.62-.7h12.28c.93,0,1.63,.23,2.1,.7,.47,.47,.81,.99,1.02,1.56l12.28,31.34,12.6-31.34c.28-.57,.66-1.09,1.13-1.56s1.16-.7,2.1-.7h12.06c.65,0,1.2,.23,1.67,.7,.47,.47,.7,.99,.7,1.56,0,.36-.11,.82-.32,1.4l-30.48,70.56c-.22,.57-.57,1.09-1.08,1.56-.5,.47-1.22,.7-2.15,.7h-11.85Z"/></g><g><path class="cls-1" d="M160.1,46.31l-31.21-18.41-8.7-5.13-13.69-8.07c-2.5-1.47-5.61-1.47-8.11,0l-13.69,8.07-8.69,5.13-31.23,18.41-.56,.33V119c0,2.83,1.49,5.44,3.93,6.88l50.23,29.62c2.5,1.48,5.61,1.48,8.11,0l50.23-29.62c2.43-1.44,3.93-4.05,3.93-6.88V46.64l-.56-.33Zm-13.94,32.08H58.73c-1.1,0-1.99-.89-1.99-1.99v-11.59c0-1.1,.89-1.99,1.99-1.99h87.43c1.1,0,1.99,.89,1.99,1.99v11.59c0,1.1-.89,1.99-1.99,1.99ZM98.75,29.25c2.29-1.35,5.11-1.35,7.41,0l30.32,17.88c1.11,.65,.64,2.35-.64,2.35H69.05c-1.28,0-1.75-1.7-.64-2.35l30.34-17.88Zm7.41,111.7c-2.29,1.37-5.11,1.37-7.41,0l-34.33-20.23h71.42c1.28,0,1.75,1.7,.64,2.35l-30.32,17.88Zm40-33.57H58.73c-1.1,0-1.99-.89-1.99-1.99v-11.66c0-1.1,.89-1.99,1.99-1.99h87.43c1.1,0,1.99,.89,1.99,1.99v11.66c0,1.1-.89,1.99-1.99,1.99Z"/><g><path class="cls-1" d="M49.64,.13l2.02,.21c20.05,2.08,28.82,19.51,30.66,28.44l.42,2.03-9.42,2.02-1.97,.41-.43-2c-.15-.71-3.91-17.34-20.44-19.05l-2.02-.21c-6.21-1.02-2.73-13.34,1.18-11.84Z"/><path class="cls-1" d="M155.26,.13l-2.02,.21c-20.05,2.08-28.82,19.51-30.66,28.44l-.42,2.03,9.42,2.02,1.97,.41,.43-2c.15-.71,3.91-17.34,20.44-19.05l2.02-.21c6.21-1.02,2.73-13.34-1.18-11.84Z"/></g><path class="cls-1" d="M176.94,46.75h-28.38v28.95c0,8.08,3.35,15.84,9.19,21.29,5.24,4.93,12.05,7.65,19.19,7.65,15.64,0,28.36-12.98,28.36-28.94s-12.72-28.95-28.36-28.95Zm0,45.23c-8.78,0-15.92-7.31-15.92-16.29v-16.3h15.92c8.77,0,15.91,7.31,15.91,16.3s-7.14,16.29-15.91,16.29Z"/><path class="cls-1" d="M28.36,46.75h28.38v28.95c0,8.08-3.35,15.84-9.19,21.29-5.24,4.93-12.05,7.65-19.19,7.65-15.64,0-28.36-12.98-28.36-28.94s12.72-28.95,28.36-28.95Zm0,45.23c8.78,0,15.92-7.31,15.92-16.29v-16.3h-15.92c-8.77,0-15.91,7.31-15.91,16.3s7.14,16.29,15.91,16.29Z"/></g></g></svg>