<svg width="800" height="800" viewBox="0 0 800 800" fill="none" xmlns="http://www.w3.org/2000/svg">
<rect width="800" height="800" rx="169" fill="white"/>
<path d="M366 330.5C292.525 294.656 248.462 278.439 165.5 256L454.5 256.5C475.933 257.283 487.555 261.945 507.5 280C535.749 261.134 565.665 259.967 597 284.5C567.041 317.6 547.201 332.603 502.5 348.5C482.5 280 406 269.5 366 330.5Z" fill="black" stroke="black"/>
<path d="M490.5 406.5C499.99 391.409 502.963 382.275 504 365C556.487 349.113 567.508 337.968 608.796 296.212L609.5 295.5C630.014 318.289 635.695 331.668 641 356C590.237 396.701 556.467 405.639 490.5 406.5Z" fill="black" stroke="black"/>
<path d="M647.5 371.5C614.707 398.64 592.037 408.629 545.5 419C598.903 435.487 628.921 447.286 683 489C676.223 474.902 673.553 466.541 671 450.5C669.583 420.847 667.891 407.033 661.5 393.5L647.5 371.5Z" fill="black" stroke="black"/>
<path d="M83 444V343C163.808 347.94 210.512 355.967 295 378.5C194.434 382.077 153.839 403.626 83 444Z" fill="black"/>
<path d="M405.5 409.5C263.923 373.103 188.194 405.566 112.5 444H221.5V489.5C282.273 442.475 322.691 423.614 405.5 409.5Z" fill="black"/>
<path d="M83 444V343C163.808 347.94 210.512 355.967 295 378.5C194.434 382.077 153.839 403.626 83 444Z" stroke="black"/>
<path d="M405.5 409.5C263.923 373.103 188.194 405.566 112.5 444H221.5V489.5C282.273 442.475 322.691 423.614 405.5 409.5Z" stroke="black"/>
<path d="M220.5 511V544.5L556.5 544C468.232 431.777 326.983 419.332 220.5 511Z" fill="black" stroke="black"/>
<path d="M716 544H576C521.67 467.22 456.368 433.227 360.5 435.5C494.539 397.449 629.45 447.187 716 544Z" fill="black" stroke="black"/>
<path d="M470.5 405.504C434.196 401.354 413.959 396.055 378 384.004C374.771 374.109 374.116 367.423 375 353.004C394.249 283.548 495.383 293.54 487.5 376.004C483.993 389.225 480.145 395.598 470.5 405.504Z" fill="black" stroke="black"/>
<path d="M83.5 326.5V257C191.054 273.969 251.945 293.018 361.5 346.5C358.402 354.253 358.099 361.776 359.5 379.5C253.771 348.242 193.547 335.652 83.5 326.5Z" fill="black" stroke="black"/>
</svg>
